<mxfile host="Electron" modified="2024-09-05T08:58:14.007Z" agent="Mozilla/5.0 (Windows NT 10.0; Win64; x64) AppleWebKit/537.36 (KHTML, like Gecko) draw.io/24.6.4 Chrome/124.0.6367.207 Electron/30.0.6 Safari/537.36" etag="YhCSUdcUVIMoyRnomnel" version="24.6.4" type="device">
  <diagram name="Pagina-1" id="RlPx2V80lAa3WAIiVTEK">
    <mxGraphModel dx="2327" dy="899" grid="1" gridSize="10" guides="1" tooltips="1" connect="1" arrows="1" fold="1" page="1" pageScale="1" pageWidth="827" pageHeight="1169" math="0" shadow="0">
      <root>
        <mxCell id="0" />
        <mxCell id="1" parent="0" />
        <mxCell id="sqYBcp5Z2inxsuhx5Mb5-64" value="" style="whiteSpace=wrap;html=1;strokeColor=#C925D1;fontFamily=Helvetica;fontSize=11;fontColor=#5AA9E6;labelBackgroundColor=default;fillColor=none;strokeWidth=3;" vertex="1" parent="1">
          <mxGeometry x="-773.5" y="719" width="505" height="310" as="geometry" />
        </mxCell>
        <mxCell id="sqYBcp5Z2inxsuhx5Mb5-35" style="edgeStyle=orthogonalEdgeStyle;rounded=0;orthogonalLoop=1;jettySize=auto;html=1;fontFamily=Helvetica;fontSize=16;fontColor=#FFFFFF;fontStyle=0;labelBackgroundColor=none;" edge="1" parent="1" source="sqYBcp5Z2inxsuhx5Mb5-25" target="sqYBcp5Z2inxsuhx5Mb5-14">
          <mxGeometry relative="1" as="geometry" />
        </mxCell>
        <mxCell id="sqYBcp5Z2inxsuhx5Mb5-25" value="" style="whiteSpace=wrap;html=1;shadow=0;dashed=0;sketch=0;strokeColor=#E7157B;align=center;verticalAlign=top;spacingLeft=6;spacingRight=8;spacingBottom=10;fontFamily=Helvetica;fontSize=16;fontColor=#FFFFFF;fontStyle=0;labelBackgroundColor=none;fillColor=none;strokeWidth=3;" vertex="1" parent="1">
          <mxGeometry x="350" y="220" width="200" height="380" as="geometry" />
        </mxCell>
        <mxCell id="sqYBcp5Z2inxsuhx5Mb5-40" style="edgeStyle=orthogonalEdgeStyle;rounded=0;orthogonalLoop=1;jettySize=auto;html=1;fontFamily=Helvetica;fontSize=16;fontColor=#FFFFFF;fontStyle=0;labelBackgroundColor=none;" edge="1" parent="1" source="vYMK42moYF4k0brq86LY-1" target="sqYBcp5Z2inxsuhx5Mb5-1">
          <mxGeometry relative="1" as="geometry" />
        </mxCell>
        <mxCell id="vYMK42moYF4k0brq86LY-1" value="TelegramBot" style="shape=image;html=1;verticalAlign=bottom;verticalLabelPosition=top;imageAspect=0;aspect=fixed;image=https://cdn3.iconfinder.com/data/icons/social-media-chamfered-corner/154/telegram-128.png;labelPosition=center;align=center;spacingBottom=10;spacingRight=8;spacingLeft=6;shadow=0;fontSize=15;strokeColor=default;" parent="1" vertex="1">
          <mxGeometry x="-560" y="371" width="78" height="78" as="geometry" />
        </mxCell>
        <mxCell id="sqYBcp5Z2inxsuhx5Mb5-39" style="edgeStyle=orthogonalEdgeStyle;rounded=0;orthogonalLoop=1;jettySize=auto;html=1;fontFamily=Helvetica;fontSize=16;fontColor=#FFFFFF;fontStyle=0;labelBackgroundColor=none;" edge="1" parent="1" source="sqYBcp5Z2inxsuhx5Mb5-1" target="sqYBcp5Z2inxsuhx5Mb5-2">
          <mxGeometry relative="1" as="geometry" />
        </mxCell>
        <mxCell id="sqYBcp5Z2inxsuhx5Mb5-1" value="HTTP Lambda&lt;div&gt;Auth Telegram&lt;/div&gt;" style="sketch=0;points=[[0,0,0],[0.25,0,0],[0.5,0,0],[0.75,0,0],[1,0,0],[0,1,0],[0.25,1,0],[0.5,1,0],[0.75,1,0],[1,1,0],[0,0.25,0],[0,0.5,0],[0,0.75,0],[1,0.25,0],[1,0.5,0],[1,0.75,0]];outlineConnect=0;fillColor=#ED7100;strokeColor=#ffffff;dashed=0;verticalLabelPosition=top;verticalAlign=bottom;align=center;html=1;aspect=fixed;shape=mxgraph.aws4.resourceIcon;resIcon=mxgraph.aws4.lambda;fontSize=15;labelPosition=center;" vertex="1" parent="1">
          <mxGeometry x="-350" y="371" width="78" height="78" as="geometry" />
        </mxCell>
        <mxCell id="sqYBcp5Z2inxsuhx5Mb5-38" style="edgeStyle=orthogonalEdgeStyle;rounded=0;orthogonalLoop=1;jettySize=auto;html=1;fontFamily=Helvetica;fontSize=16;fontColor=#FFFFFF;fontStyle=0;labelBackgroundColor=none;" edge="1" parent="1" source="sqYBcp5Z2inxsuhx5Mb5-2" target="sqYBcp5Z2inxsuhx5Mb5-3">
          <mxGeometry relative="1" as="geometry" />
        </mxCell>
        <mxCell id="sqYBcp5Z2inxsuhx5Mb5-44" style="edgeStyle=orthogonalEdgeStyle;rounded=0;orthogonalLoop=1;jettySize=auto;html=1;fontFamily=Helvetica;fontSize=16;fontColor=#FFFFFF;fontStyle=0;labelBackgroundColor=none;" edge="1" parent="1" source="sqYBcp5Z2inxsuhx5Mb5-2" target="sqYBcp5Z2inxsuhx5Mb5-43">
          <mxGeometry relative="1" as="geometry" />
        </mxCell>
        <mxCell id="sqYBcp5Z2inxsuhx5Mb5-2" value="SQS&lt;div&gt;TgUpdate&lt;/div&gt;" style="sketch=0;points=[[0,0,0],[0.25,0,0],[0.5,0,0],[0.75,0,0],[1,0,0],[0,1,0],[0.25,1,0],[0.5,1,0],[0.75,1,0],[1,1,0],[0,0.25,0],[0,0.5,0],[0,0.75,0],[1,0.25,0],[1,0.5,0],[1,0.75,0]];outlineConnect=0;fillColor=#E7157B;strokeColor=#ffffff;dashed=0;verticalLabelPosition=top;verticalAlign=bottom;align=center;html=1;aspect=fixed;shape=mxgraph.aws4.resourceIcon;resIcon=mxgraph.aws4.sqs;fontSize=15;labelPosition=center;" vertex="1" parent="1">
          <mxGeometry x="-128" y="371" width="78" height="78" as="geometry" />
        </mxCell>
        <mxCell id="sqYBcp5Z2inxsuhx5Mb5-37" style="edgeStyle=orthogonalEdgeStyle;rounded=0;orthogonalLoop=1;jettySize=auto;html=1;fontFamily=Helvetica;fontSize=16;fontColor=#FFFFFF;fontStyle=0;labelBackgroundColor=none;" edge="1" parent="1" source="sqYBcp5Z2inxsuhx5Mb5-3" target="sqYBcp5Z2inxsuhx5Mb5-25">
          <mxGeometry relative="1" as="geometry" />
        </mxCell>
        <mxCell id="sqYBcp5Z2inxsuhx5Mb5-61" style="edgeStyle=orthogonalEdgeStyle;shape=connector;rounded=0;orthogonalLoop=1;jettySize=auto;html=1;strokeColor=default;align=center;verticalAlign=middle;fontFamily=Helvetica;fontSize=11;fontColor=#5AA9E6;labelBackgroundColor=default;endArrow=classic;fillColor=#FFE45E;" edge="1" parent="1" source="sqYBcp5Z2inxsuhx5Mb5-3" target="sqYBcp5Z2inxsuhx5Mb5-4">
          <mxGeometry relative="1" as="geometry">
            <Array as="points">
              <mxPoint x="109" y="300" />
              <mxPoint x="-31" y="300" />
            </Array>
          </mxGeometry>
        </mxCell>
        <mxCell id="sqYBcp5Z2inxsuhx5Mb5-62" style="edgeStyle=orthogonalEdgeStyle;shape=connector;rounded=0;orthogonalLoop=1;jettySize=auto;html=1;strokeColor=default;align=center;verticalAlign=middle;fontFamily=Helvetica;fontSize=11;fontColor=#5AA9E6;labelBackgroundColor=default;endArrow=classic;fillColor=#FFE45E;" edge="1" parent="1" source="sqYBcp5Z2inxsuhx5Mb5-3" target="sqYBcp5Z2inxsuhx5Mb5-60">
          <mxGeometry relative="1" as="geometry" />
        </mxCell>
        <mxCell id="sqYBcp5Z2inxsuhx5Mb5-3" value="SQS Lambda&lt;div&gt;TgBot Core&lt;/div&gt;" style="sketch=0;points=[[0,0,0],[0.25,0,0],[0.5,0,0],[0.75,0,0],[1,0,0],[0,1,0],[0.25,1,0],[0.5,1,0],[0.75,1,0],[1,1,0],[0,0.25,0],[0,0.5,0],[0,0.75,0],[1,0.25,0],[1,0.5,0],[1,0.75,0]];outlineConnect=0;fillColor=#ED7100;strokeColor=#ffffff;dashed=0;verticalLabelPosition=bottom;verticalAlign=top;align=center;html=1;aspect=fixed;shape=mxgraph.aws4.resourceIcon;resIcon=mxgraph.aws4.lambda;fontSize=15;horizontal=1;labelPosition=center;" vertex="1" parent="1">
          <mxGeometry x="70" y="371" width="78" height="78" as="geometry" />
        </mxCell>
        <mxCell id="sqYBcp5Z2inxsuhx5Mb5-4" value="S3 Bucket&lt;div&gt;&lt;div&gt;PersistenceState&lt;br&gt;&lt;/div&gt;&lt;/div&gt;" style="sketch=0;points=[[0,0,0],[0.25,0,0],[0.5,0,0],[0.75,0,0],[1,0,0],[0,1,0],[0.25,1,0],[0.5,1,0],[0.75,1,0],[1,1,0],[0,0.25,0],[0,0.5,0],[0,0.75,0],[1,0.25,0],[1,0.5,0],[1,0.75,0]];outlineConnect=0;fillColor=#7AA116;strokeColor=#ffffff;dashed=0;verticalLabelPosition=top;verticalAlign=bottom;align=center;html=1;aspect=fixed;shape=mxgraph.aws4.resourceIcon;resIcon=mxgraph.aws4.s3;fontSize=15;labelPosition=center;" vertex="1" parent="1">
          <mxGeometry x="-70" y="110" width="78" height="78" as="geometry" />
        </mxCell>
        <mxCell id="sqYBcp5Z2inxsuhx5Mb5-5" value="SNS&lt;div&gt;ErrorTopic&lt;/div&gt;" style="sketch=0;points=[[0,0,0],[0.25,0,0],[0.5,0,0],[0.75,0,0],[1,0,0],[0,1,0],[0.25,1,0],[0.5,1,0],[0.75,1,0],[1,1,0],[0,0.25,0],[0,0.5,0],[0,0.75,0],[1,0.25,0],[1,0.5,0],[1,0.75,0]];outlineConnect=0;fillColor=#E7157B;strokeColor=#ffffff;dashed=0;verticalLabelPosition=top;verticalAlign=bottom;align=center;html=1;aspect=fixed;shape=mxgraph.aws4.resourceIcon;resIcon=mxgraph.aws4.sns;fontSize=15;labelPosition=center;" vertex="1" parent="1">
          <mxGeometry x="273" y="812.5" width="78" height="78" as="geometry" />
        </mxCell>
        <mxCell id="sqYBcp5Z2inxsuhx5Mb5-53" style="edgeStyle=orthogonalEdgeStyle;rounded=0;orthogonalLoop=1;jettySize=auto;html=1;strokeColor=default;fontColor=#5AA9E6;fillColor=#FFE45E;" edge="1" parent="1" source="sqYBcp5Z2inxsuhx5Mb5-7" target="sqYBcp5Z2inxsuhx5Mb5-5">
          <mxGeometry relative="1" as="geometry" />
        </mxCell>
        <mxCell id="sqYBcp5Z2inxsuhx5Mb5-7" value="Eventbridge&lt;div&gt;Pipes&lt;/div&gt;" style="sketch=0;outlineConnect=0;gradientColor=none;fillColor=#E7157B;strokeColor=none;dashed=0;verticalLabelPosition=bottom;verticalAlign=top;align=center;html=1;aspect=fixed;pointerEvents=1;shape=mxgraph.aws4.eventbridge_pipes;fontSize=15;" vertex="1" parent="1">
          <mxGeometry x="-128" y="812.5" width="78" height="78" as="geometry" />
        </mxCell>
        <mxCell id="sqYBcp5Z2inxsuhx5Mb5-9" value="System Manager&lt;div style=&quot;font-size: 16px;&quot;&gt;Parameter Store&lt;/div&gt;" style="sketch=0;outlineConnect=0;gradientColor=none;fillColor=#E7157B;strokeColor=none;dashed=0;verticalLabelPosition=bottom;verticalAlign=top;align=center;html=1;aspect=fixed;pointerEvents=1;shape=mxgraph.aws4.parameter_store;fontSize=16;" vertex="1" parent="1">
          <mxGeometry x="1490" y="989.25" width="75" height="78" as="geometry" />
        </mxCell>
        <mxCell id="sqYBcp5Z2inxsuhx5Mb5-33" style="edgeStyle=orthogonalEdgeStyle;rounded=0;orthogonalLoop=1;jettySize=auto;html=1;fontFamily=Helvetica;fontSize=16;fontColor=#FFFFFF;fontStyle=0;labelBackgroundColor=none;entryX=0;entryY=0.5;entryDx=0;entryDy=0;" edge="1" parent="1" source="sqYBcp5Z2inxsuhx5Mb5-13" target="sqYBcp5Z2inxsuhx5Mb5-49">
          <mxGeometry relative="1" as="geometry">
            <mxPoint x="1150" y="410" as="targetPoint" />
          </mxGeometry>
        </mxCell>
        <mxCell id="sqYBcp5Z2inxsuhx5Mb5-45" style="edgeStyle=orthogonalEdgeStyle;rounded=0;orthogonalLoop=1;jettySize=auto;html=1;fontFamily=Helvetica;fontSize=16;fontColor=#FFFFFF;fontStyle=0;labelBackgroundColor=none;" edge="1" parent="1" source="sqYBcp5Z2inxsuhx5Mb5-13" target="sqYBcp5Z2inxsuhx5Mb5-31">
          <mxGeometry relative="1" as="geometry" />
        </mxCell>
        <mxCell id="sqYBcp5Z2inxsuhx5Mb5-13" value="SQS Lambda&lt;div&gt;PublishStories&lt;/div&gt;" style="sketch=0;points=[[0,0,0],[0.25,0,0],[0.5,0,0],[0.75,0,0],[1,0,0],[0,1,0],[0.25,1,0],[0.5,1,0],[0.75,1,0],[1,1,0],[0,0.25,0],[0,0.5,0],[0,0.75,0],[1,0.25,0],[1,0.5,0],[1,0.75,0]];outlineConnect=0;fillColor=#ED7100;strokeColor=#ffffff;dashed=0;verticalLabelPosition=top;verticalAlign=bottom;align=center;html=1;aspect=fixed;shape=mxgraph.aws4.resourceIcon;resIcon=mxgraph.aws4.lambda;fontSize=15;labelPosition=center;" vertex="1" parent="1">
          <mxGeometry x="910" y="371" width="78" height="78" as="geometry" />
        </mxCell>
        <mxCell id="sqYBcp5Z2inxsuhx5Mb5-34" style="edgeStyle=orthogonalEdgeStyle;rounded=0;orthogonalLoop=1;jettySize=auto;html=1;fontFamily=Helvetica;fontSize=16;fontColor=#FFFFFF;fontStyle=0;labelBackgroundColor=none;" edge="1" parent="1" source="sqYBcp5Z2inxsuhx5Mb5-14" target="sqYBcp5Z2inxsuhx5Mb5-13">
          <mxGeometry relative="1" as="geometry" />
        </mxCell>
        <mxCell id="sqYBcp5Z2inxsuhx5Mb5-55" style="edgeStyle=orthogonalEdgeStyle;rounded=0;orthogonalLoop=1;jettySize=auto;html=1;strokeColor=#FFFFFF;fontColor=#5AA9E6;fillColor=#FFE45E;" edge="1" parent="1" source="sqYBcp5Z2inxsuhx5Mb5-14" target="sqYBcp5Z2inxsuhx5Mb5-46">
          <mxGeometry relative="1" as="geometry" />
        </mxCell>
        <mxCell id="sqYBcp5Z2inxsuhx5Mb5-14" value="SQS&lt;div&gt;ScheduledEvents&lt;/div&gt;" style="sketch=0;points=[[0,0,0],[0.25,0,0],[0.5,0,0],[0.75,0,0],[1,0,0],[0,1,0],[0.25,1,0],[0.5,1,0],[0.75,1,0],[1,1,0],[0,0.25,0],[0,0.5,0],[0,0.75,0],[1,0.25,0],[1,0.5,0],[1,0.75,0]];outlineConnect=0;fillColor=#E7157B;strokeColor=#ffffff;dashed=0;verticalLabelPosition=top;verticalAlign=bottom;align=center;html=1;aspect=fixed;shape=mxgraph.aws4.resourceIcon;resIcon=mxgraph.aws4.sqs;fontSize=15;labelPosition=center;" vertex="1" parent="1">
          <mxGeometry x="672" y="371" width="78" height="78" as="geometry" />
        </mxCell>
        <mxCell id="sqYBcp5Z2inxsuhx5Mb5-57" style="edgeStyle=orthogonalEdgeStyle;rounded=0;orthogonalLoop=1;jettySize=auto;html=1;strokeColor=default;fontColor=#5AA9E6;fillColor=#FFE45E;sourcePerimeterSpacing=5;" edge="1" parent="1" source="sqYBcp5Z2inxsuhx5Mb5-22" target="vYMK42moYF4k0brq86LY-1">
          <mxGeometry relative="1" as="geometry" />
        </mxCell>
        <mxCell id="sqYBcp5Z2inxsuhx5Mb5-22" value="U&lt;span style=&quot;background-color: initial;&quot;&gt;sers&lt;/span&gt;" style="sketch=0;outlineConnect=0;fontColor=#FFFFFF;strokeColor=default;fillColor=#f0a30a;dashed=0;verticalLabelPosition=bottom;verticalAlign=top;align=center;html=1;fontSize=16;fontStyle=0;aspect=fixed;shape=mxgraph.aws4.illustration_users;pointerEvents=1;shadow=0;spacingLeft=6;spacingRight=8;spacingBottom=10;fontFamily=Helvetica;labelBackgroundColor=none;fillStyle=auto;gradientColor=none;" vertex="1" parent="1">
          <mxGeometry x="-790" y="371" width="78" height="78" as="geometry" />
        </mxCell>
        <mxCell id="sqYBcp5Z2inxsuhx5Mb5-26" value="Scheduler" style="shape=image;aspect=fixed;image=data:image/svg+xml,PD94bWwgdmVyc2lvbj0iMS4wIiBlbmNvZGluZz0iVVRGLTgiPz4KPHN2ZyB3aWR0aD0iMTZweCIgaGVpZ2h0PSIxNnB4IiB2aWV3Qm94PSIwIDAgNDggNDgiIHZlcnNpb249IjEuMSIgeG1sbnM9Imh0dHA6Ly93d3cudzMub3JnLzIwMDAvc3ZnIgogICAgeG1sbnM6eGxpbms9Imh0dHA6Ly93d3cudzMub3JnLzE5OTkveGxpbmsiPgogICAgPGRlZnM+CiAgICAgICAgPGxpbmVhckdyYWRpZW50IHgxPSIwJSIgeTE9IjEwMCUiIHgyPSIxMDAlIiB5Mj0iMCUiIGlkPSJncmFkaWVudC1waW5rIiBrZXk9ImdyYWRpZW50LXBpbmsiPgogICAgICAgICAgICA8c3RvcCBzdG9wLWNvbG9yPSIjQjAwODREIiBvZmZzZXQ9IjAlIiAvPgogICAgICAgICAgICA8c3RvcCBzdG9wLWNvbG9yPSIjRkY0RjhCIiBvZmZzZXQ9IjEwMCUiIC8+CiAgICAgICAgPC9saW5lYXJHcmFkaWVudD4KICAgIDwvZGVmcz4KICAgIDx0aXRsZT5BbWF6b24gRXZlbnRCcmlkZ2UgU2NoZWR1bGVyPC90aXRsZT4KICAgIDxnIGlkPSJJY29uLVJlc291cmNlL0FwcGxpY2F0aW9uLUludGVncmF0aW9uL1Jlc19BbWF6b24tRXZlbnRCcmlkZ2VfU2NoZWR1bGVyXzQ4IiBzdHJva2U9Im5vbmUiIHN0cm9rZS13aWR0aD0iMSIKICAgICAgICBmaWxsPSJub25lIiBmaWxsLXJ1bGU9ImV2ZW5vZGQiPgogICAgICAgIDxwb2x5Z29uIGZpbGw9InVybCgjZ3JhZGllbnQtcGluaykiIGZpbGxSdWxlPSJub256ZXJvIiBwb2ludHM9IjAgMCA0OCAwIDQ4IDQ4IDAgNDgiIC8+CiAgICAgICAgPHBhdGgKICAgICAgICAgICAgZD0iTTE1LDE2IEwxOC45MiwxNiBMMTguOTIsMTQgTDE1LjkyLDE0IEwxNS45MiwxMSBMMTQsMTEgTDE0LDE1IEMxNCwxNS41NTIgMTQuNDQ3LDE2IDE1LDE2IEwxNSwxNiBaIE01LjI5MywyNC4yOTMgTDYuNzA3LDI1LjcwNyBMOS43MDcsMjIuNzA3IEw4LjI5MywyMS4yOTMgTDUuMjkzLDI0LjI5MyBaIE04LjcwNyw4LjI5MyBMNS43MDcsNS4yOTMgTDQuMjkzLDYuNzA3IEw3LjI5Myw5LjcwNyBMOC43MDcsOC4yOTMgWiBNMTUuOTIsNiBMMTYsNiBMMTYsMiBMMTUuOTIsMiBMMTQsMiBMMTQsNiBMMTUuOTIsNiBaIE0yNS43MDcsNi43MDcgTDI0LjI5Myw1LjI5MyBMMjEuMjkzLDguMjkzIEwyMi43MDcsOS43MDcgTDI1LjcwNyw2LjcwNyBaIE04LjkyLDE1IEM4LjkyLDE4LjMwOSAxMS42MTEsMjEgMTQuOTIsMjEgQzE4LjIyOSwyMSAyMC45MiwxOC4zMDkgMjAuOTIsMTUgQzIwLjkyLDExLjY5MSAxOC4yMjksOSAxNC45Miw5IEMxMS42MTEsOSA4LjkyLDExLjY5MSA4LjkyLDE1IEw4LjkyLDE1IFogTTYuOTIsMTUgQzYuOTIsMTAuNTg5IDEwLjUwOSw3IDE0LjkyLDcgQzE5LjMzMSw3IDIyLjkyLDEwLjU4OSAyMi45MiwxNSBDMjIuOTIsMTkuNDExIDE5LjMzMSwyMyAxNC45MiwyMyBDMTAuNTA5LDIzIDYuOTIsMTkuNDExIDYuOTIsMTUgTDYuOTIsMTUgWiBNMTgsMzggTDIyLDM4IEwyMiwzNiBMMTgsMzYgTDE4LDM4IFogTTE4LDMzIEwyMiwzMyBMMjIsMzEgTDE4LDMxIEwxOCwzMyBaIE0xOCwyOCBMMjIsMjggTDIyLDI2IEwxOCwyNiBMMTgsMjggWiBNMzYsMzggTDQwLDM4IEw0MCwzNiBMMzYsMzYgTDM2LDM4IFogTTM2LDMzIEw0MCwzMyBMNDAsMzEgTDM2LDMxIEwzNiwzMyBaIE0zNiwyOCBMNDAsMjggTDQwLDI2IEwzNiwyNiBMMzYsMjggWiBNMjcsMzggTDMxLDM4IEwzMSwzNiBMMjcsMzYgTDI3LDM4IFogTTI3LDMzIEwzMSwzMyBMMzEsMzEgTDI3LDMxIEwyNywzMyBaIE0yNywyOCBMMzEsMjggTDMxLDI2IEwyNywyNiBMMjcsMjggWiBNNDUsMTIgTDQyLDEyIEw0MiwxMCBMNDAsMTAgTDQwLDEyIEwzNS45MiwxMiBMMzUuOTIsMTAgTDM0LDEwIEwzNCwxMiBMMjkuOTIsMTIgTDI5LjkyLDEwIEwyOCwxMCBMMjgsMTIgTDI1LDEyIEwyNSwxNCBMMjgsMTQgTDI4LDE2IEwyOS45MiwxNiBMMjkuOTIsMTQgTDM0LDE0IEwzNCwxNiBMMzUuOTIsMTYgTDM1LjkyLDE0IEw0MCwxNCBMNDAsMTYgTDQxLjkyLDE2IEw0MS45MiwxNCBMNDQsMTQgTDQ0LDE4IEwyNSwxOCBMMjUsMjAgTDQ0LDIwIEw0NCw0MyBMMTQsNDMgTDE0LDI2IEwxMiwyNiBMMTIsNDQgQzEyLDQ0LjU1MiAxMi40NDcsNDUgMTMsNDUgTDQ1LDQ1IEM0NS41NTMsNDUgNDYsNDQuNTUyIDQ2LDQ0IEw0NiwxOSBMNDYsMTMgQzQ2LDEyLjQ0OCA0NS41NTMsMTIgNDUsMTIgTDQ1LDEyIFogTTIsMTcgTDUuOTc2LDE3IEw1Ljk3NiwxNSBMMiwxNSBMMiwxNyBaIgogICAgICAgICAgICBpZD0iRmlsbC0xIiBmaWxsPSIjRkZGRkZGIj48L3BhdGg+CiAgICA8L2c+Cjwvc3ZnPg==;strokeWidth=1;imageBackground=none;fontSize=15;verticalAlign=bottom;spacingBottom=-26;" vertex="1" parent="1">
          <mxGeometry x="411" y="290" width="78" height="78" as="geometry" />
        </mxCell>
        <mxCell id="sqYBcp5Z2inxsuhx5Mb5-16" value="Scheduler&#xa;Group" style="shape=image;aspect=fixed;image=data:image/svg+xml,PD94bWwgdmVyc2lvbj0iMS4wIiBlbmNvZGluZz0iVVRGLTgiPz4KPHN2ZyB3aWR0aD0iMTZweCIgaGVpZ2h0PSIxNnB4IiB2aWV3Qm94PSIwIDAgNDggNDgiIHZlcnNpb249IjEuMSIgeG1sbnM9Imh0dHA6Ly93d3cudzMub3JnLzIwMDAvc3ZnIgogICAgeG1sbnM6eGxpbms9Imh0dHA6Ly93d3cudzMub3JnLzE5OTkveGxpbmsiPgogICAgPGRlZnM+CiAgICAgICAgPGxpbmVhckdyYWRpZW50IHgxPSIwJSIgeTE9IjEwMCUiIHgyPSIxMDAlIiB5Mj0iMCUiIGlkPSJncmFkaWVudC1waW5rIiBrZXk9ImdyYWRpZW50LXBpbmsiPgogICAgICAgICAgICA8c3RvcCBzdG9wLWNvbG9yPSIjQjAwODREIiBvZmZzZXQ9IjAlIiAvPgogICAgICAgICAgICA8c3RvcCBzdG9wLWNvbG9yPSIjRkY0RjhCIiBvZmZzZXQ9IjEwMCUiIC8+CiAgICAgICAgPC9saW5lYXJHcmFkaWVudD4KICAgIDwvZGVmcz4KICAgIDx0aXRsZT5BbWF6b24gRXZlbnRCcmlkZ2UgU2NoZWR1bGVyPC90aXRsZT4KICAgIDxnIGlkPSJJY29uLVJlc291cmNlL0FwcGxpY2F0aW9uLUludGVncmF0aW9uL1Jlc19BbWF6b24tRXZlbnRCcmlkZ2VfU2NoZWR1bGVyXzQ4IiBzdHJva2U9Im5vbmUiIHN0cm9rZS13aWR0aD0iMSIKICAgICAgICBmaWxsPSJub25lIiBmaWxsLXJ1bGU9ImV2ZW5vZGQiPgogICAgICAgIDxwb2x5Z29uIGZpbGw9InVybCgjZ3JhZGllbnQtcGluaykiIGZpbGxSdWxlPSJub256ZXJvIiBwb2ludHM9IjAgMCA0OCAwIDQ4IDQ4IDAgNDgiIC8+CiAgICAgICAgPHBhdGgKICAgICAgICAgICAgZD0iTTE1LDE2IEwxOC45MiwxNiBMMTguOTIsMTQgTDE1LjkyLDE0IEwxNS45MiwxMSBMMTQsMTEgTDE0LDE1IEMxNCwxNS41NTIgMTQuNDQ3LDE2IDE1LDE2IEwxNSwxNiBaIE01LjI5MywyNC4yOTMgTDYuNzA3LDI1LjcwNyBMOS43MDcsMjIuNzA3IEw4LjI5MywyMS4yOTMgTDUuMjkzLDI0LjI5MyBaIE04LjcwNyw4LjI5MyBMNS43MDcsNS4yOTMgTDQuMjkzLDYuNzA3IEw3LjI5Myw5LjcwNyBMOC43MDcsOC4yOTMgWiBNMTUuOTIsNiBMMTYsNiBMMTYsMiBMMTUuOTIsMiBMMTQsMiBMMTQsNiBMMTUuOTIsNiBaIE0yNS43MDcsNi43MDcgTDI0LjI5Myw1LjI5MyBMMjEuMjkzLDguMjkzIEwyMi43MDcsOS43MDcgTDI1LjcwNyw2LjcwNyBaIE04LjkyLDE1IEM4LjkyLDE4LjMwOSAxMS42MTEsMjEgMTQuOTIsMjEgQzE4LjIyOSwyMSAyMC45MiwxOC4zMDkgMjAuOTIsMTUgQzIwLjkyLDExLjY5MSAxOC4yMjksOSAxNC45Miw5IEMxMS42MTEsOSA4LjkyLDExLjY5MSA4LjkyLDE1IEw4LjkyLDE1IFogTTYuOTIsMTUgQzYuOTIsMTAuNTg5IDEwLjUwOSw3IDE0LjkyLDcgQzE5LjMzMSw3IDIyLjkyLDEwLjU4OSAyMi45MiwxNSBDMjIuOTIsMTkuNDExIDE5LjMzMSwyMyAxNC45MiwyMyBDMTAuNTA5LDIzIDYuOTIsMTkuNDExIDYuOTIsMTUgTDYuOTIsMTUgWiBNMTgsMzggTDIyLDM4IEwyMiwzNiBMMTgsMzYgTDE4LDM4IFogTTE4LDMzIEwyMiwzMyBMMjIsMzEgTDE4LDMxIEwxOCwzMyBaIE0xOCwyOCBMMjIsMjggTDIyLDI2IEwxOCwyNiBMMTgsMjggWiBNMzYsMzggTDQwLDM4IEw0MCwzNiBMMzYsMzYgTDM2LDM4IFogTTM2LDMzIEw0MCwzMyBMNDAsMzEgTDM2LDMxIEwzNiwzMyBaIE0zNiwyOCBMNDAsMjggTDQwLDI2IEwzNiwyNiBMMzYsMjggWiBNMjcsMzggTDMxLDM4IEwzMSwzNiBMMjcsMzYgTDI3LDM4IFogTTI3LDMzIEwzMSwzMyBMMzEsMzEgTDI3LDMxIEwyNywzMyBaIE0yNywyOCBMMzEsMjggTDMxLDI2IEwyNywyNiBMMjcsMjggWiBNNDUsMTIgTDQyLDEyIEw0MiwxMCBMNDAsMTAgTDQwLDEyIEwzNS45MiwxMiBMMzUuOTIsMTAgTDM0LDEwIEwzNCwxMiBMMjkuOTIsMTIgTDI5LjkyLDEwIEwyOCwxMCBMMjgsMTIgTDI1LDEyIEwyNSwxNCBMMjgsMTQgTDI4LDE2IEwyOS45MiwxNiBMMjkuOTIsMTQgTDM0LDE0IEwzNCwxNiBMMzUuOTIsMTYgTDM1LjkyLDE0IEw0MCwxNCBMNDAsMTYgTDQxLjkyLDE2IEw0MS45MiwxNCBMNDQsMTQgTDQ0LDE4IEwyNSwxOCBMMjUsMjAgTDQ0LDIwIEw0NCw0MyBMMTQsNDMgTDE0LDI2IEwxMiwyNiBMMTIsNDQgQzEyLDQ0LjU1MiAxMi40NDcsNDUgMTMsNDUgTDQ1LDQ1IEM0NS41NTMsNDUgNDYsNDQuNTUyIDQ2LDQ0IEw0NiwxOSBMNDYsMTMgQzQ2LDEyLjQ0OCA0NS41NTMsMTIgNDUsMTIgTDQ1LDEyIFogTTIsMTcgTDUuOTc2LDE3IEw1Ljk3NiwxNSBMMiwxNSBMMiwxNyBaIgogICAgICAgICAgICBpZD0iRmlsbC0xIiBmaWxsPSIjRkZGRkZGIj48L3BhdGg+CiAgICA8L2c+Cjwvc3ZnPg==;strokeWidth=1;imageBackground=none;fontSize=15;verticalAlign=top;spacingBottom=0;spacingLeft=55;spacingTop=-5;align=left;" vertex="1" parent="1">
          <mxGeometry x="350" y="220" width="50" height="50" as="geometry" />
        </mxCell>
        <mxCell id="sqYBcp5Z2inxsuhx5Mb5-28" value="Scheduler" style="shape=image;aspect=fixed;image=data:image/svg+xml,PD94bWwgdmVyc2lvbj0iMS4wIiBlbmNvZGluZz0iVVRGLTgiPz4KPHN2ZyB3aWR0aD0iMTZweCIgaGVpZ2h0PSIxNnB4IiB2aWV3Qm94PSIwIDAgNDggNDgiIHZlcnNpb249IjEuMSIgeG1sbnM9Imh0dHA6Ly93d3cudzMub3JnLzIwMDAvc3ZnIgogICAgeG1sbnM6eGxpbms9Imh0dHA6Ly93d3cudzMub3JnLzE5OTkveGxpbmsiPgogICAgPGRlZnM+CiAgICAgICAgPGxpbmVhckdyYWRpZW50IHgxPSIwJSIgeTE9IjEwMCUiIHgyPSIxMDAlIiB5Mj0iMCUiIGlkPSJncmFkaWVudC1waW5rIiBrZXk9ImdyYWRpZW50LXBpbmsiPgogICAgICAgICAgICA8c3RvcCBzdG9wLWNvbG9yPSIjQjAwODREIiBvZmZzZXQ9IjAlIiAvPgogICAgICAgICAgICA8c3RvcCBzdG9wLWNvbG9yPSIjRkY0RjhCIiBvZmZzZXQ9IjEwMCUiIC8+CiAgICAgICAgPC9saW5lYXJHcmFkaWVudD4KICAgIDwvZGVmcz4KICAgIDx0aXRsZT5BbWF6b24gRXZlbnRCcmlkZ2UgU2NoZWR1bGVyPC90aXRsZT4KICAgIDxnIGlkPSJJY29uLVJlc291cmNlL0FwcGxpY2F0aW9uLUludGVncmF0aW9uL1Jlc19BbWF6b24tRXZlbnRCcmlkZ2VfU2NoZWR1bGVyXzQ4IiBzdHJva2U9Im5vbmUiIHN0cm9rZS13aWR0aD0iMSIKICAgICAgICBmaWxsPSJub25lIiBmaWxsLXJ1bGU9ImV2ZW5vZGQiPgogICAgICAgIDxwb2x5Z29uIGZpbGw9InVybCgjZ3JhZGllbnQtcGluaykiIGZpbGxSdWxlPSJub256ZXJvIiBwb2ludHM9IjAgMCA0OCAwIDQ4IDQ4IDAgNDgiIC8+CiAgICAgICAgPHBhdGgKICAgICAgICAgICAgZD0iTTE1LDE2IEwxOC45MiwxNiBMMTguOTIsMTQgTDE1LjkyLDE0IEwxNS45MiwxMSBMMTQsMTEgTDE0LDE1IEMxNCwxNS41NTIgMTQuNDQ3LDE2IDE1LDE2IEwxNSwxNiBaIE01LjI5MywyNC4yOTMgTDYuNzA3LDI1LjcwNyBMOS43MDcsMjIuNzA3IEw4LjI5MywyMS4yOTMgTDUuMjkzLDI0LjI5MyBaIE04LjcwNyw4LjI5MyBMNS43MDcsNS4yOTMgTDQuMjkzLDYuNzA3IEw3LjI5Myw5LjcwNyBMOC43MDcsOC4yOTMgWiBNMTUuOTIsNiBMMTYsNiBMMTYsMiBMMTUuOTIsMiBMMTQsMiBMMTQsNiBMMTUuOTIsNiBaIE0yNS43MDcsNi43MDcgTDI0LjI5Myw1LjI5MyBMMjEuMjkzLDguMjkzIEwyMi43MDcsOS43MDcgTDI1LjcwNyw2LjcwNyBaIE04LjkyLDE1IEM4LjkyLDE4LjMwOSAxMS42MTEsMjEgMTQuOTIsMjEgQzE4LjIyOSwyMSAyMC45MiwxOC4zMDkgMjAuOTIsMTUgQzIwLjkyLDExLjY5MSAxOC4yMjksOSAxNC45Miw5IEMxMS42MTEsOSA4LjkyLDExLjY5MSA4LjkyLDE1IEw4LjkyLDE1IFogTTYuOTIsMTUgQzYuOTIsMTAuNTg5IDEwLjUwOSw3IDE0LjkyLDcgQzE5LjMzMSw3IDIyLjkyLDEwLjU4OSAyMi45MiwxNSBDMjIuOTIsMTkuNDExIDE5LjMzMSwyMyAxNC45MiwyMyBDMTAuNTA5LDIzIDYuOTIsMTkuNDExIDYuOTIsMTUgTDYuOTIsMTUgWiBNMTgsMzggTDIyLDM4IEwyMiwzNiBMMTgsMzYgTDE4LDM4IFogTTE4LDMzIEwyMiwzMyBMMjIsMzEgTDE4LDMxIEwxOCwzMyBaIE0xOCwyOCBMMjIsMjggTDIyLDI2IEwxOCwyNiBMMTgsMjggWiBNMzYsMzggTDQwLDM4IEw0MCwzNiBMMzYsMzYgTDM2LDM4IFogTTM2LDMzIEw0MCwzMyBMNDAsMzEgTDM2LDMxIEwzNiwzMyBaIE0zNiwyOCBMNDAsMjggTDQwLDI2IEwzNiwyNiBMMzYsMjggWiBNMjcsMzggTDMxLDM4IEwzMSwzNiBMMjcsMzYgTDI3LDM4IFogTTI3LDMzIEwzMSwzMyBMMzEsMzEgTDI3LDMxIEwyNywzMyBaIE0yNywyOCBMMzEsMjggTDMxLDI2IEwyNywyNiBMMjcsMjggWiBNNDUsMTIgTDQyLDEyIEw0MiwxMCBMNDAsMTAgTDQwLDEyIEwzNS45MiwxMiBMMzUuOTIsMTAgTDM0LDEwIEwzNCwxMiBMMjkuOTIsMTIgTDI5LjkyLDEwIEwyOCwxMCBMMjgsMTIgTDI1LDEyIEwyNSwxNCBMMjgsMTQgTDI4LDE2IEwyOS45MiwxNiBMMjkuOTIsMTQgTDM0LDE0IEwzNCwxNiBMMzUuOTIsMTYgTDM1LjkyLDE0IEw0MCwxNCBMNDAsMTYgTDQxLjkyLDE2IEw0MS45MiwxNCBMNDQsMTQgTDQ0LDE4IEwyNSwxOCBMMjUsMjAgTDQ0LDIwIEw0NCw0MyBMMTQsNDMgTDE0LDI2IEwxMiwyNiBMMTIsNDQgQzEyLDQ0LjU1MiAxMi40NDcsNDUgMTMsNDUgTDQ1LDQ1IEM0NS41NTMsNDUgNDYsNDQuNTUyIDQ2LDQ0IEw0NiwxOSBMNDYsMTMgQzQ2LDEyLjQ0OCA0NS41NTMsMTIgNDUsMTIgTDQ1LDEyIFogTTIsMTcgTDUuOTc2LDE3IEw1Ljk3NiwxNSBMMiwxNSBMMiwxNyBaIgogICAgICAgICAgICBpZD0iRmlsbC0xIiBmaWxsPSIjRkZGRkZGIj48L3BhdGg+CiAgICA8L2c+Cjwvc3ZnPg==;strokeWidth=1;imageBackground=none;fontSize=15;verticalAlign=bottom;spacingBottom=-26;" vertex="1" parent="1">
          <mxGeometry x="411" y="410" width="78" height="78" as="geometry" />
        </mxCell>
        <mxCell id="sqYBcp5Z2inxsuhx5Mb5-30" value=". . ." style="text;strokeColor=none;align=center;fillColor=none;html=1;verticalAlign=middle;whiteSpace=wrap;rounded=0;fontFamily=Helvetica;fontSize=30;fontColor=default;fontStyle=0;labelBackgroundColor=none;" vertex="1" parent="1">
          <mxGeometry x="420" y="541" width="60" height="30" as="geometry" />
        </mxCell>
        <mxCell id="sqYBcp5Z2inxsuhx5Mb5-31" value="S3 Bucket&lt;div&gt;&lt;div&gt;Images&lt;/div&gt;&lt;/div&gt;" style="sketch=0;points=[[0,0,0],[0.25,0,0],[0.5,0,0],[0.75,0,0],[1,0,0],[0,1,0],[0.25,1,0],[0.5,1,0],[0.75,1,0],[1,1,0],[0,0.25,0],[0,0.5,0],[0,0.75,0],[1,0.25,0],[1,0.5,0],[1,0.75,0]];outlineConnect=0;fillColor=#7AA116;strokeColor=#ffffff;dashed=0;verticalLabelPosition=bottom;verticalAlign=top;align=center;html=1;aspect=fixed;shape=mxgraph.aws4.resourceIcon;resIcon=mxgraph.aws4.s3;fontSize=15;" vertex="1" parent="1">
          <mxGeometry x="910" y="582" width="78" height="78" as="geometry" />
        </mxCell>
        <mxCell id="sqYBcp5Z2inxsuhx5Mb5-51" style="edgeStyle=orthogonalEdgeStyle;rounded=0;orthogonalLoop=1;jettySize=auto;html=1;strokeColor=default;fontColor=#5AA9E6;fillColor=#FFE45E;sourcePerimeterSpacing=50;targetPerimeterSpacing=5;" edge="1" parent="1" source="sqYBcp5Z2inxsuhx5Mb5-43" target="sqYBcp5Z2inxsuhx5Mb5-7">
          <mxGeometry relative="1" as="geometry" />
        </mxCell>
        <mxCell id="sqYBcp5Z2inxsuhx5Mb5-43" value="SQS DDL&lt;div&gt;TgUpdate&lt;/div&gt;" style="sketch=0;points=[[0,0,0],[0.25,0,0],[0.5,0,0],[0.75,0,0],[1,0,0],[0,1,0],[0.25,1,0],[0.5,1,0],[0.75,1,0],[1,1,0],[0,0.25,0],[0,0.5,0],[0,0.75,0],[1,0.25,0],[1,0.5,0],[1,0.75,0]];outlineConnect=0;fillColor=#E7157B;strokeColor=#ffffff;dashed=0;verticalLabelPosition=bottom;verticalAlign=top;align=center;html=1;aspect=fixed;shape=mxgraph.aws4.resourceIcon;resIcon=mxgraph.aws4.sqs;fontSize=15;" vertex="1" parent="1">
          <mxGeometry x="-128" y="582" width="78" height="78" as="geometry" />
        </mxCell>
        <mxCell id="sqYBcp5Z2inxsuhx5Mb5-52" style="edgeStyle=orthogonalEdgeStyle;rounded=0;orthogonalLoop=1;jettySize=auto;html=1;strokeColor=default;fontColor=#5AA9E6;fillColor=#FFE45E;sourcePerimeterSpacing=50;targetPerimeterSpacing=5;" edge="1" parent="1" source="sqYBcp5Z2inxsuhx5Mb5-46" target="sqYBcp5Z2inxsuhx5Mb5-50">
          <mxGeometry relative="1" as="geometry" />
        </mxCell>
        <mxCell id="sqYBcp5Z2inxsuhx5Mb5-46" value="SQS DDL&lt;div&gt;ScheduledEvents&lt;/div&gt;" style="sketch=0;points=[[0,0,0],[0.25,0,0],[0.5,0,0],[0.75,0,0],[1,0,0],[0,1,0],[0.25,1,0],[0.5,1,0],[0.75,1,0],[1,1,0],[0,0.25,0],[0,0.5,0],[0,0.75,0],[1,0.25,0],[1,0.5,0],[1,0.75,0]];outlineConnect=0;fillColor=#E7157B;strokeColor=#ffffff;dashed=0;verticalLabelPosition=bottom;verticalAlign=top;align=center;html=1;aspect=fixed;shape=mxgraph.aws4.resourceIcon;resIcon=mxgraph.aws4.sqs;fontSize=15;" vertex="1" parent="1">
          <mxGeometry x="672" y="582" width="78" height="78" as="geometry" />
        </mxCell>
        <mxCell id="sqYBcp5Z2inxsuhx5Mb5-47" value="Developers&lt;div&gt;mail&lt;/div&gt;" style="verticalLabelPosition=bottom;html=1;verticalAlign=top;align=center;strokeColor=#BD7000;fillColor=#f0a30a;shape=mxgraph.azure.message;pointerEvents=1;shadow=0;dashed=0;spacingLeft=6;spacingRight=8;spacingBottom=10;fontFamily=Helvetica;fontSize=16;fontColor=#FFFFFF;fontStyle=0;labelBackgroundColor=none;aspect=fixed;fillStyle=solid;" vertex="1" parent="1">
          <mxGeometry x="460" y="999" width="78" height="58.5" as="geometry" />
        </mxCell>
        <mxCell id="sqYBcp5Z2inxsuhx5Mb5-49" value="Instagram" style="shape=image;verticalLabelPosition=top;labelBackgroundColor=default;verticalAlign=bottom;aspect=fixed;imageAspect=0;image=data:image/svg+xml,PHN2ZyB4bWxuczp4bGluaz0iaHR0cDovL3d3dy53My5vcmcvMTk5OS94bGluayIgeG1sbnM9Imh0dHA6Ly93d3cudzMub3JnLzIwMDAvc3ZnIiB3aWR0aD0iMzIiIHZpZXdCb3g9IjAgMCAzMiAzMiIgaGVpZ2h0PSIzMiIgZmlsbD0ibm9uZSI+PHJhZGlhbEdyYWRpZW50IHI9IjEiIGdyYWRpZW50VW5pdHM9InVzZXJTcGFjZU9uVXNlIiBncmFkaWVudFRyYW5zZm9ybT0ibWF0cml4KDE0LjUwMDAxNjI5IC0yMC45OTk5ODgzOCAyMC45OTk5ODgzOCAxNC41MDAwMTYyOSAxMiAyMykiIGN5PSIwIiBjeD0iMCIgaWQ9ImEiPjxzdG9wIHN0b3AtY29sb3I9IiNiMTM1ODkiIG9mZnNldD0iMCIvPjxzdG9wIHN0b3AtY29sb3I9IiNjNjJmOTQiIG9mZnNldD0iLjc5MzA5Ii8+PHN0b3Agc3RvcC1jb2xvcj0iIzhhM2FjOCIgb2Zmc2V0PSIxIi8+PC9yYWRpYWxHcmFkaWVudD48cmFkaWFsR3JhZGllbnQgcj0iMSIgZ3JhZGllbnRVbml0cz0idXNlclNwYWNlT25Vc2UiIGdyYWRpZW50VHJhbnNmb3JtPSJtYXRyaXgoOS40OTk5ODE0NCAtMjAuNDk5OTU2NzQgMjAuNDk5OTU2NzQgOS40OTk5ODE0NCAxMSAzMSkiIGN5PSIwIiBjeD0iMCIgaWQ9ImIiPjxzdG9wIHN0b3AtY29sb3I9IiNlMGU4YjciIG9mZnNldD0iMCIvPjxzdG9wIHN0b3AtY29sb3I9IiNmYjhhMmUiIG9mZnNldD0iLjQ0NDY2MiIvPjxzdG9wIHN0b3AtY29sb3I9IiNlMjQyNWMiIG9mZnNldD0iLjcxNDc0Ii8+PHN0b3Agc3RvcC1vcGFjaXR5PSIwIiBzdG9wLWNvbG9yPSIjZTI0MjVjIiBvZmZzZXQ9IjEiLz48L3JhZGlhbEdyYWRpZW50PjxyYWRpYWxHcmFkaWVudCByPSIxIiBncmFkaWVudFVuaXRzPSJ1c2VyU3BhY2VPblVzZSIgZ3JhZGllbnRUcmFuc2Zvcm09Im1hdHJpeCgzOC41MDAwMjY5OSAtNS41MDAwMDIyNCAxLjE3NjM5MzQxIDguMjM0NzU2MzIgLjUwMDAwMiAzKSIgY3k9IjAiIGN4PSIwIiBpZD0iYyI+PHN0b3Agc3RvcC1jb2xvcj0iIzQwNmFkYyIgb2Zmc2V0PSIuMTU2NzAxIi8+PHN0b3Agc3RvcC1jb2xvcj0iIzZhNDViZSIgb2Zmc2V0PSIuNDY3Nzk5Ii8+PHN0b3Agc3RvcC1vcGFjaXR5PSIwIiBzdG9wLWNvbG9yPSIjNmE0NWJlIiBvZmZzZXQ9IjEiLz48L3JhZGlhbEdyYWRpZW50PjxyZWN0IHk9IjIiIHg9IjIiIHdpZHRoPSIyOCIgcng9IjYiIGhlaWdodD0iMjgiIGZpbGw9InVybCgjYSkiLz48cmVjdCB5PSIyIiB4PSIyIiB3aWR0aD0iMjgiIHJ4PSI2IiBoZWlnaHQ9IjI4IiBmaWxsPSJ1cmwoI2IpIi8+PHJlY3QgeT0iMiIgeD0iMiIgd2lkdGg9IjI4IiByeD0iNiIgaGVpZ2h0PSIyOCIgZmlsbD0idXJsKCNjKSIvPjxnIGZpbGw9IiNmZmYiPjxwYXRoIGQ9Im0yMyAxMC41YzAgLjgyODQtLjY3MTYgMS41LTEuNSAxLjVzLTEuNS0uNjcxNi0xLjUtMS41YzAtLjgyODQzLjY3MTYtMS41IDEuNS0xLjVzMS41LjY3MTU3IDEuNSAxLjV6Ii8+PHBhdGggZmlsbC1ydWxlPSJldmVub2RkIiBkPSJtMTYgMjFjMi43NjE0IDAgNS0yLjIzODYgNS01cy0yLjIzODYtNS01LTUtNSAyLjIzODYtNSA1IDIuMjM4NiA1IDUgNXptMC0yYzEuNjU2OSAwIDMtMS4zNDMxIDMtM3MtMS4zNDMxLTMtMy0zLTMgMS4zNDMxLTMgMyAxLjM0MzEgMyAzIDN6IiBjbGlwLXJ1bGU9ImV2ZW5vZGQiLz48cGF0aCBmaWxsLXJ1bGU9ImV2ZW5vZGQiIGQ9Im02IDE1LjZjMC0zLjM2MDMgMC01LjA0MDUuNjUzOTYtNi4zMjM5NC41NzUyNC0xLjEyODk4IDEuNDkzMTItMi4wNDY4NiAyLjYyMjEtMi42MjIxIDEuMjgzNDQtLjY1Mzk2IDIuOTYzNjQtLjY1Mzk2IDYuMzIzOTQtLjY1Mzk2aC44YzMuMzYwMyAwIDUuMDQwNSAwIDYuMzIzOS42NTM5NiAxLjEyOS41NzUyNCAyLjA0NjkgMS40OTMxMiAyLjYyMjEgMi42MjIxLjY1NCAxLjI4MzQ0LjY1NCAyLjk2MzY0LjY1NCA2LjMyMzk0di44YzAgMy4zNjAzIDAgNS4wNDA1LS42NTQgNi4zMjM5LS41NzUyIDEuMTI5LTEuNDkzMSAyLjA0NjktMi42MjIxIDIuNjIyMS0xLjI4MzQuNjU0LTIuOTYzNi42NTQtNi4zMjM5LjY1NGgtLjhjLTMuMzYwMyAwLTUuMDQwNSAwLTYuMzIzOTQtLjY1NC0xLjEyODk4LS41NzUyLTIuMDQ2ODYtMS40OTMxLTIuNjIyMS0yLjYyMjEtLjY1Mzk2LTEuMjgzNC0uNjUzOTYtMi45NjM2LS42NTM5Ni02LjMyMzl6bTkuNi03LjZoLjhjMS43MTMyIDAgMi44Nzc3LjAwMTU2IDMuNzc3OS4wNzUxLjg3NjkuMDcxNjQgMS4zMjUzLjIwMTQ5IDEuNjM4MS4zNjA4Ny43NTI2LjM4MzUgMS4zNjQ1Ljk5NTQyIDEuNzQ4IDEuNzQ4MDMuMTU5NC4zMTI4LjI4OTMuNzYxMi4zNjA5IDEuNjM4MS4wNzM1LjkwMDIuMDc1MSAyLjA2NDcuMDc1MSAzLjc3Nzl2LjhjMCAxLjcxMzItLjAwMTYgMi44Nzc3LS4wNzUxIDMuNzc3OS0uMDcxNi44NzY5LS4yMDE1IDEuMzI1My0uMzYwOSAxLjYzODEtLjM4MzUuNzUyNi0uOTk1NCAxLjM2NDUtMS43NDggMS43NDgtLjMxMjguMTU5NC0uNzYxMi4yODkzLTEuNjM4MS4zNjA5LS45MDAyLjA3MzUtMi4wNjQ3LjA3NTEtMy43Nzc5LjA3NTFoLS44Yy0xLjcxMzIgMC0yLjg3NzctLjAwMTYtMy43Nzc5LS4wNzUxLS44NzY5LS4wNzE2LTEuMzI1My0uMjAxNS0xLjYzODEtLjM2MDktLjc1MjYxLS4zODM1LTEuMzY0NTMtLjk5NTQtMS43NDgwMy0xLjc0OC0uMTU5MzgtLjMxMjgtLjI4OTIzLS43NjEyLS4zNjA4Ny0xLjYzODEtLjA3MzU0LS45MDAyLS4wNzUxLTIuMDY0Ny0uMDc1MS0zLjc3Nzl2LS44YzAtMS43MTMyLjAwMTU2LTIuODc3Ny4wNzUxLTMuNzc3OS4wNzE2NC0uODc2OS4yMDE0OS0xLjMyNTMuMzYwODctMS42MzgxLjM4MzUtLjc1MjYxLjk5NTQyLTEuMzY0NTMgMS43NDgwMy0xLjc0ODAzLjMxMjgtLjE1OTM4Ljc2MTItLjI4OTIzIDEuNjM4MS0uMzYwODcuOTAwMi0uMDczNTQgMi4wNjQ3LS4wNzUxIDMuNzc3OS0uMDc1MXoiIGNsaXAtcnVsZT0iZXZlbm9kZCIvPjwvZz48L3N2Zz4=;fontSize=16;labelPosition=center;align=center;" vertex="1" parent="1">
          <mxGeometry x="1150" y="371" width="78" height="78" as="geometry" />
        </mxCell>
        <mxCell id="sqYBcp5Z2inxsuhx5Mb5-54" style="edgeStyle=orthogonalEdgeStyle;rounded=0;orthogonalLoop=1;jettySize=auto;html=1;strokeColor=default;fontColor=#5AA9E6;fillColor=#FFE45E;" edge="1" parent="1" source="sqYBcp5Z2inxsuhx5Mb5-50" target="sqYBcp5Z2inxsuhx5Mb5-5">
          <mxGeometry relative="1" as="geometry" />
        </mxCell>
        <mxCell id="sqYBcp5Z2inxsuhx5Mb5-50" value="Eventbridge&lt;div&gt;Pipes&lt;/div&gt;" style="sketch=0;outlineConnect=0;gradientColor=none;fillColor=#E7157B;strokeColor=none;dashed=0;verticalLabelPosition=bottom;verticalAlign=top;align=center;html=1;aspect=fixed;pointerEvents=1;shape=mxgraph.aws4.eventbridge_pipes;fontSize=15;" vertex="1" parent="1">
          <mxGeometry x="672" y="812.5" width="78" height="78" as="geometry" />
        </mxCell>
        <mxCell id="sqYBcp5Z2inxsuhx5Mb5-56" style="edgeStyle=orthogonalEdgeStyle;rounded=0;orthogonalLoop=1;jettySize=auto;html=1;entryX=0;entryY=0.5;entryDx=0;entryDy=0;entryPerimeter=0;strokeColor=#FFFFFF;fontColor=#5AA9E6;fillColor=#FFE45E;" edge="1" parent="1" source="sqYBcp5Z2inxsuhx5Mb5-5" target="sqYBcp5Z2inxsuhx5Mb5-47">
          <mxGeometry relative="1" as="geometry">
            <Array as="points">
              <mxPoint x="312" y="1028" />
            </Array>
          </mxGeometry>
        </mxCell>
        <mxCell id="sqYBcp5Z2inxsuhx5Mb5-58" value="&lt;font color=&quot;#ffffff&quot; style=&quot;font-size: 16px;&quot;&gt;Transcribe&lt;/font&gt;" style="sketch=0;points=[[0,0,0],[0.25,0,0],[0.5,0,0],[0.75,0,0],[1,0,0],[0,1,0],[0.25,1,0],[0.5,1,0],[0.75,1,0],[1,1,0],[0,0.25,0],[0,0.5,0],[0,0.75,0],[1,0.25,0],[1,0.5,0],[1,0.75,0]];outlineConnect=0;fontColor=#232F3E;fillColor=#01A88D;strokeColor=#ffffff;dashed=0;verticalLabelPosition=top;verticalAlign=bottom;align=center;html=1;fontSize=12;fontStyle=0;aspect=fixed;shape=mxgraph.aws4.resourceIcon;resIcon=mxgraph.aws4.transcribe;fontFamily=Helvetica;labelBackgroundColor=default;labelPosition=center;" vertex="1" parent="1">
          <mxGeometry x="210" y="110" width="78" height="78" as="geometry" />
        </mxCell>
        <mxCell id="sqYBcp5Z2inxsuhx5Mb5-60" value="&lt;font color=&quot;#ffffff&quot; style=&quot;font-size: 16px;&quot;&gt;Bedrock&lt;/font&gt;" style="sketch=0;points=[[0,0,0],[0.25,0,0],[0.5,0,0],[0.75,0,0],[1,0,0],[0,1,0],[0.25,1,0],[0.5,1,0],[0.75,1,0],[1,1,0],[0,0.25,0],[0,0.5,0],[0,0.75,0],[1,0.25,0],[1,0.5,0],[1,0.75,0]];outlineConnect=0;fontColor=#232F3E;fillColor=#01A88D;strokeColor=#ffffff;dashed=0;verticalLabelPosition=top;verticalAlign=bottom;align=center;html=1;fontSize=12;fontStyle=0;aspect=fixed;shape=mxgraph.aws4.resourceIcon;resIcon=mxgraph.aws4.bedrock;fontFamily=Helvetica;labelBackgroundColor=default;labelPosition=center;" vertex="1" parent="1">
          <mxGeometry x="70" y="110" width="78" height="78" as="geometry" />
        </mxCell>
        <mxCell id="sqYBcp5Z2inxsuhx5Mb5-63" style="edgeStyle=orthogonalEdgeStyle;shape=connector;rounded=0;orthogonalLoop=1;jettySize=auto;html=1;entryX=0.5;entryY=1;entryDx=0;entryDy=0;entryPerimeter=0;strokeColor=default;align=center;verticalAlign=middle;fontFamily=Helvetica;fontSize=11;fontColor=#5AA9E6;labelBackgroundColor=default;endArrow=classic;fillColor=#FFE45E;" edge="1" parent="1" source="sqYBcp5Z2inxsuhx5Mb5-3" target="sqYBcp5Z2inxsuhx5Mb5-58">
          <mxGeometry relative="1" as="geometry">
            <Array as="points">
              <mxPoint x="109" y="300" />
              <mxPoint x="249" y="300" />
            </Array>
          </mxGeometry>
        </mxCell>
        <mxCell id="sqYBcp5Z2inxsuhx5Mb5-66" value="" style="group" vertex="1" connectable="0" parent="1">
          <mxGeometry x="-710" y="762" width="378" height="196.5" as="geometry" />
        </mxCell>
        <mxCell id="sqYBcp5Z2inxsuhx5Mb5-10" value="CodePipeline" style="sketch=0;points=[[0,0,0],[0.25,0,0],[0.5,0,0],[0.75,0,0],[1,0,0],[0,1,0],[0.25,1,0],[0.5,1,0],[0.75,1,0],[1,1,0],[0,0.25,0],[0,0.5,0],[0,0.75,0],[1,0.25,0],[1,0.5,0],[1,0.75,0]];outlineConnect=0;fillColor=#C925D1;strokeColor=#ffffff;dashed=0;verticalLabelPosition=bottom;verticalAlign=top;align=center;html=1;aspect=fixed;shape=mxgraph.aws4.resourceIcon;resIcon=mxgraph.aws4.codepipeline;fontSize=15;shadow=1;" vertex="1" parent="sqYBcp5Z2inxsuhx5Mb5-66">
          <mxGeometry x="190" y="60.5" width="78" height="78" as="geometry" />
        </mxCell>
        <mxCell id="sqYBcp5Z2inxsuhx5Mb5-11" value="CodeBuild&lt;div&gt;Terreform&lt;/div&gt;" style="sketch=0;points=[[0,0,0],[0.25,0,0],[0.5,0,0],[0.75,0,0],[1,0,0],[0,1,0],[0.25,1,0],[0.5,1,0],[0.75,1,0],[1,1,0],[0,0.25,0],[0,0.5,0],[0,0.75,0],[1,0.25,0],[1,0.5,0],[1,0.75,0]];outlineConnect=0;fillColor=#C925D1;strokeColor=#ffffff;dashed=0;verticalLabelPosition=bottom;verticalAlign=top;align=center;html=1;aspect=fixed;shape=mxgraph.aws4.resourceIcon;resIcon=mxgraph.aws4.codebuild;fontSize=15;" vertex="1" parent="sqYBcp5Z2inxsuhx5Mb5-66">
          <mxGeometry x="300" y="118.5" width="78" height="78" as="geometry" />
        </mxCell>
        <mxCell id="sqYBcp5Z2inxsuhx5Mb5-12" value="GitHub&lt;div&gt;Repository&lt;/div&gt;" style="dashed=0;outlineConnect=0;html=1;align=center;labelPosition=center;verticalLabelPosition=bottom;verticalAlign=top;shape=mxgraph.weblogos.github;fontSize=15;" vertex="1" parent="sqYBcp5Z2inxsuhx5Mb5-66">
          <mxGeometry width="75" height="75" as="geometry" />
        </mxCell>
        <mxCell id="sqYBcp5Z2inxsuhx5Mb5-48" value="Terraform" style="shape=image;verticalLabelPosition=bottom;labelBackgroundColor=default;verticalAlign=top;aspect=fixed;imageAspect=0;image=data:image/svg+xml,PHN2ZyB4bWxucz0iaHR0cDovL3d3dy53My5vcmcvMjAwMC9zdmciIHZpZXdCb3g9IjAgMCAzMiAzMiI+PGcgZmlsbD0iIzgxM2NmMyI+PHBhdGggZD0ibTEyLjA0MiA2Ljg1OCA4LjAyOSA0LjU5djkuMDE0bC04LjAyOS00LjU5NHoiLz48cGF0aCBkPSJtMjAuNSAyMC40MTUgNy45NTktNC41NzV2LTguOTUzbC03Ljk1OSA0LjU0MnoiLz48cGF0aCBkPSJtMy41NDEgMTEuMDEgOC4wMyA0LjU4OXYtOS4wMDlsLTguMDMtNC41OXoiLz48cGF0aCBkPSJtMTIuMDQyIDI1LjQxIDguMDI5IDQuNTl2LTkuMDQzbC04LjAyOS00LjU4OXoiLz48L2c+PC9zdmc+;fontSize=16;fontColor=#FFFFFF;" vertex="1" parent="sqYBcp5Z2inxsuhx5Mb5-66">
          <mxGeometry x="90" width="78" height="78" as="geometry" />
        </mxCell>
        <mxCell id="sqYBcp5Z2inxsuhx5Mb5-68" value="&lt;font color=&quot;#c925d1&quot;&gt;CICD&lt;/font&gt;" style="text;strokeColor=none;align=center;fillColor=none;html=1;verticalAlign=middle;whiteSpace=wrap;rounded=0;fontFamily=Helvetica;fontSize=32;fontColor=#000000;labelBackgroundColor=none;spacingTop=0;spacingBottom=0;" vertex="1" parent="1">
          <mxGeometry x="-773.5" y="680" width="73.5" height="39" as="geometry" />
        </mxCell>
        <mxCell id="sqYBcp5Z2inxsuhx5Mb5-71" value="IAM&#xa;Roles and Policies" style="shape=image;verticalLabelPosition=bottom;labelBackgroundColor=none;verticalAlign=top;aspect=fixed;imageAspect=0;image=data:image/svg+xml,PHN2ZyB4bWxuczp4bGluaz0iaHR0cDovL3d3dy53My5vcmcvMTk5OS94bGluayIgeG1sbnM9Imh0dHA6Ly93d3cudzMub3JnLzIwMDAvc3ZnIiB2ZXJzaW9uPSIxLjEiIHZpZXdCb3g9IjAgMCAyNCAyNCIgaGVpZ2h0PSIyNHB4IiB3aWR0aD0iMjRweCI+JiN4YTsgICAgJiN4YTsgICAgPHRpdGxlPkljb24tQXJjaGl0ZWN0dXJlLzE2L0FyY2hfQVdTLUlkZW50aXR5LWFuZC1BY2Nlc3MtTWFuYWdlbWVudF8xNjwvdGl0bGU+JiN4YTsgICAgPGRlc2M+Q3JlYXRlZCB3aXRoIFNrZXRjaC48L2Rlc2M+JiN4YTsgICAgPGRlZnM+JiN4YTsgICAgICAgIDxsaW5lYXJHcmFkaWVudCBpZD0ibGluZWFyR3JhZGllbnQtMSIgeTI9IjAlIiB4Mj0iMTAwJSIgeTE9IjEwMCUiIHgxPSIwJSI+JiN4YTsgICAgICAgICAgICA8c3RvcCBvZmZzZXQ9IjAlIiBzdG9wLWNvbG9yPSIjQkQwODE2Ii8+JiN4YTsgICAgICAgICAgICA8c3RvcCBvZmZzZXQ9IjEwMCUiIHN0b3AtY29sb3I9IiNGRjUyNTIiLz4mI3hhOyAgICAgICAgPC9saW5lYXJHcmFkaWVudD4mI3hhOyAgICA8L2RlZnM+JiN4YTsgICAgPGcgZmlsbC1ydWxlPSJldmVub2RkIiBmaWxsPSJub25lIiBzdHJva2Utd2lkdGg9IjEiIHN0cm9rZT0ibm9uZSIgaWQ9Ikljb24tQXJjaGl0ZWN0dXJlLzE2L0FyY2hfQVdTLUlkZW50aXR5LWFuZC1BY2Nlc3MtTWFuYWdlbWVudF8xNiI+JiN4YTsgICAgICAgIDxnIGZpbGw9InVybCgjbGluZWFyR3JhZGllbnQtMSkiIGlkPSJJY29uLUFyY2hpdGVjdHVyZS1CRy8xNi9TZWN1cml0eS1JZGVudGl0eS1Db21wbGlhbmNlIj4mI3hhOyAgICAgICAgICAgIDxyZWN0IGhlaWdodD0iMjQiIHdpZHRoPSIyNCIgeT0iMCIgeD0iMCIgaWQ9IlJlY3RhbmdsZSIvPiYjeGE7ICAgICAgICA8L2c+JiN4YTsgICAgICAgIDxwYXRoIGZpbGw9IiNGRkZGRkYiIGlkPSJBV1MtSWRlbnRpdHktYW5kLUFjY2Vzcy1NYW5hZ2VtZW50X0ljb25fMTZfU3F1aWQiIGQ9Ik01LDE4IEwxOSwxOCBMMTksNyBMNSw3IEw1LDE4IFogTTIwLDYuNSBMMjAsMTguNSBDMjAsMTguNzc2IDE5Ljc3NiwxOSAxOS41LDE5IEw0LjUsMTkgQzQuMjI0LDE5IDQsMTguNzc2IDQsMTguNSBMNCw2LjUgQzQsNi4yMjQgNC4yMjQsNiA0LjUsNiBMMTkuNSw2IEMxOS43NzYsNiAyMCw2LjIyNCAyMCw2LjUgTDIwLDYuNSBaIE03LDE0Ljk5OCBMMTAuOTk4LDE1IEwxMSwxMi4wMDIgTDcuMDAyLDEyIEw3LDE0Ljk5OCBaIE04LDExIEwxMCwxMS4wMDEgTDEwLDkuODU0IEMxMCw5LjI2NCA5LjY0NSw4LjkzOSA5LDguOTM5IEw4Ljk5OSw4LjkzOSBDOC42Nyw4LjkzOSA4LjQwNyw5LjAyNyA4LjIzOSw5LjE5MyBDOC4wNDIsOS4zODggOC4wMDEsOS42NTkgOC4wMDEsOS44NTIgTDgsMTEgWiBNNi4xNDYsMTUuODUyIEM2LjA1MywxNS43NTggNiwxNS42MyA2LDE1LjQ5OCBMNi4wMDIsMTEuNSBDNi4wMDIsMTEuMjI0IDYuMjI2LDExIDYuNTAyLDExIEw3LDExIEw3LjAwMSw5Ljg1MiBDNy4wMDEsOS4zMDEgNy4xODcsOC44MjcgNy41MzcsOC40ODEgQzcuODk2LDguMTI3IDguNDAxLDcuOTM5IDguOTk5LDcuOTM5IEw5LDcuOTM5IEMxMC4xOTYsNy45MzkgMTEsOC43MDggMTEsOS44NTQgTDExLDExLjAwMiBMMTEuNSwxMS4wMDIgQzExLjYzMywxMS4wMDIgMTEuNzYsMTEuMDU1IDExLjg1NCwxMS4xNDggQzExLjk0NywxMS4yNDIgMTIsMTEuMzcgMTIsMTEuNTAyIEwxMS45OTgsMTUuNSBDMTEuOTk4LDE1Ljc3NiAxMS43NzQsMTYgMTEuNDk4LDE2IEw2LjUsMTUuOTk4IEM2LjM2NywxNS45OTggNi4yNCwxNS45NDUgNi4xNDYsMTUuODUyIEw2LjE0NiwxNS44NTIgWiBNMTQsMTQgTDE2LDE0IEwxNiwxMyBMMTQsMTMgTDE0LDE0IFogTTE0LDExIEwxOCwxMSBMMTgsMTAgTDE0LDEwIEwxNCwxMSBaIi8+JiN4YTsgICAgPC9nPiYjeGE7PC9zdmc+;fontSize=16;" vertex="1" parent="1">
          <mxGeometry x="960" y="989.25" width="78" height="78" as="geometry" />
        </mxCell>
        <mxCell id="sqYBcp5Z2inxsuhx5Mb5-73" style="edgeStyle=orthogonalEdgeStyle;shape=connector;rounded=0;orthogonalLoop=1;jettySize=auto;html=1;strokeColor=default;align=center;verticalAlign=middle;fontFamily=Helvetica;fontSize=11;fontColor=#5AA9E6;labelBackgroundColor=default;endArrow=classic;fillColor=#FFE45E;" edge="1" parent="1" source="sqYBcp5Z2inxsuhx5Mb5-72" target="sqYBcp5Z2inxsuhx5Mb5-9">
          <mxGeometry relative="1" as="geometry" />
        </mxCell>
        <mxCell id="sqYBcp5Z2inxsuhx5Mb5-72" value="Scheduled Lambda&lt;div&gt;RefreshToken&lt;/div&gt;" style="sketch=0;points=[[0,0,0],[0.25,0,0],[0.5,0,0],[0.75,0,0],[1,0,0],[0,1,0],[0.25,1,0],[0.5,1,0],[0.75,1,0],[1,1,0],[0,0.25,0],[0,0.5,0],[0,0.75,0],[1,0.25,0],[1,0.5,0],[1,0.75,0]];outlineConnect=0;fillColor=#ED7100;strokeColor=#ffffff;dashed=0;verticalLabelPosition=bottom;verticalAlign=top;align=center;html=1;aspect=fixed;shape=mxgraph.aws4.resourceIcon;resIcon=mxgraph.aws4.lambda;fontSize=15;labelPosition=center;" vertex="1" parent="1">
          <mxGeometry x="1310" y="989.25" width="78" height="78" as="geometry" />
        </mxCell>
        <mxCell id="sqYBcp5Z2inxsuhx5Mb5-75" style="edgeStyle=orthogonalEdgeStyle;shape=connector;rounded=0;orthogonalLoop=1;jettySize=auto;html=1;strokeColor=default;align=center;verticalAlign=middle;fontFamily=Helvetica;fontSize=11;fontColor=#5AA9E6;labelBackgroundColor=default;endArrow=classic;fillColor=#FFE45E;" edge="1" parent="1" source="sqYBcp5Z2inxsuhx5Mb5-74" target="sqYBcp5Z2inxsuhx5Mb5-72">
          <mxGeometry relative="1" as="geometry" />
        </mxCell>
        <mxCell id="sqYBcp5Z2inxsuhx5Mb5-74" value="Scheduler" style="shape=image;aspect=fixed;image=data:image/svg+xml,PD94bWwgdmVyc2lvbj0iMS4wIiBlbmNvZGluZz0iVVRGLTgiPz4KPHN2ZyB3aWR0aD0iMTZweCIgaGVpZ2h0PSIxNnB4IiB2aWV3Qm94PSIwIDAgNDggNDgiIHZlcnNpb249IjEuMSIgeG1sbnM9Imh0dHA6Ly93d3cudzMub3JnLzIwMDAvc3ZnIgogICAgeG1sbnM6eGxpbms9Imh0dHA6Ly93d3cudzMub3JnLzE5OTkveGxpbmsiPgogICAgPGRlZnM+CiAgICAgICAgPGxpbmVhckdyYWRpZW50IHgxPSIwJSIgeTE9IjEwMCUiIHgyPSIxMDAlIiB5Mj0iMCUiIGlkPSJncmFkaWVudC1waW5rIiBrZXk9ImdyYWRpZW50LXBpbmsiPgogICAgICAgICAgICA8c3RvcCBzdG9wLWNvbG9yPSIjQjAwODREIiBvZmZzZXQ9IjAlIiAvPgogICAgICAgICAgICA8c3RvcCBzdG9wLWNvbG9yPSIjRkY0RjhCIiBvZmZzZXQ9IjEwMCUiIC8+CiAgICAgICAgPC9saW5lYXJHcmFkaWVudD4KICAgIDwvZGVmcz4KICAgIDx0aXRsZT5BbWF6b24gRXZlbnRCcmlkZ2UgU2NoZWR1bGVyPC90aXRsZT4KICAgIDxnIGlkPSJJY29uLVJlc291cmNlL0FwcGxpY2F0aW9uLUludGVncmF0aW9uL1Jlc19BbWF6b24tRXZlbnRCcmlkZ2VfU2NoZWR1bGVyXzQ4IiBzdHJva2U9Im5vbmUiIHN0cm9rZS13aWR0aD0iMSIKICAgICAgICBmaWxsPSJub25lIiBmaWxsLXJ1bGU9ImV2ZW5vZGQiPgogICAgICAgIDxwb2x5Z29uIGZpbGw9InVybCgjZ3JhZGllbnQtcGluaykiIGZpbGxSdWxlPSJub256ZXJvIiBwb2ludHM9IjAgMCA0OCAwIDQ4IDQ4IDAgNDgiIC8+CiAgICAgICAgPHBhdGgKICAgICAgICAgICAgZD0iTTE1LDE2IEwxOC45MiwxNiBMMTguOTIsMTQgTDE1LjkyLDE0IEwxNS45MiwxMSBMMTQsMTEgTDE0LDE1IEMxNCwxNS41NTIgMTQuNDQ3LDE2IDE1LDE2IEwxNSwxNiBaIE01LjI5MywyNC4yOTMgTDYuNzA3LDI1LjcwNyBMOS43MDcsMjIuNzA3IEw4LjI5MywyMS4yOTMgTDUuMjkzLDI0LjI5MyBaIE04LjcwNyw4LjI5MyBMNS43MDcsNS4yOTMgTDQuMjkzLDYuNzA3IEw3LjI5Myw5LjcwNyBMOC43MDcsOC4yOTMgWiBNMTUuOTIsNiBMMTYsNiBMMTYsMiBMMTUuOTIsMiBMMTQsMiBMMTQsNiBMMTUuOTIsNiBaIE0yNS43MDcsNi43MDcgTDI0LjI5Myw1LjI5MyBMMjEuMjkzLDguMjkzIEwyMi43MDcsOS43MDcgTDI1LjcwNyw2LjcwNyBaIE04LjkyLDE1IEM4LjkyLDE4LjMwOSAxMS42MTEsMjEgMTQuOTIsMjEgQzE4LjIyOSwyMSAyMC45MiwxOC4zMDkgMjAuOTIsMTUgQzIwLjkyLDExLjY5MSAxOC4yMjksOSAxNC45Miw5IEMxMS42MTEsOSA4LjkyLDExLjY5MSA4LjkyLDE1IEw4LjkyLDE1IFogTTYuOTIsMTUgQzYuOTIsMTAuNTg5IDEwLjUwOSw3IDE0LjkyLDcgQzE5LjMzMSw3IDIyLjkyLDEwLjU4OSAyMi45MiwxNSBDMjIuOTIsMTkuNDExIDE5LjMzMSwyMyAxNC45MiwyMyBDMTAuNTA5LDIzIDYuOTIsMTkuNDExIDYuOTIsMTUgTDYuOTIsMTUgWiBNMTgsMzggTDIyLDM4IEwyMiwzNiBMMTgsMzYgTDE4LDM4IFogTTE4LDMzIEwyMiwzMyBMMjIsMzEgTDE4LDMxIEwxOCwzMyBaIE0xOCwyOCBMMjIsMjggTDIyLDI2IEwxOCwyNiBMMTgsMjggWiBNMzYsMzggTDQwLDM4IEw0MCwzNiBMMzYsMzYgTDM2LDM4IFogTTM2LDMzIEw0MCwzMyBMNDAsMzEgTDM2LDMxIEwzNiwzMyBaIE0zNiwyOCBMNDAsMjggTDQwLDI2IEwzNiwyNiBMMzYsMjggWiBNMjcsMzggTDMxLDM4IEwzMSwzNiBMMjcsMzYgTDI3LDM4IFogTTI3LDMzIEwzMSwzMyBMMzEsMzEgTDI3LDMxIEwyNywzMyBaIE0yNywyOCBMMzEsMjggTDMxLDI2IEwyNywyNiBMMjcsMjggWiBNNDUsMTIgTDQyLDEyIEw0MiwxMCBMNDAsMTAgTDQwLDEyIEwzNS45MiwxMiBMMzUuOTIsMTAgTDM0LDEwIEwzNCwxMiBMMjkuOTIsMTIgTDI5LjkyLDEwIEwyOCwxMCBMMjgsMTIgTDI1LDEyIEwyNSwxNCBMMjgsMTQgTDI4LDE2IEwyOS45MiwxNiBMMjkuOTIsMTQgTDM0LDE0IEwzNCwxNiBMMzUuOTIsMTYgTDM1LjkyLDE0IEw0MCwxNCBMNDAsMTYgTDQxLjkyLDE2IEw0MS45MiwxNCBMNDQsMTQgTDQ0LDE4IEwyNSwxOCBMMjUsMjAgTDQ0LDIwIEw0NCw0MyBMMTQsNDMgTDE0LDI2IEwxMiwyNiBMMTIsNDQgQzEyLDQ0LjU1MiAxMi40NDcsNDUgMTMsNDUgTDQ1LDQ1IEM0NS41NTMsNDUgNDYsNDQuNTUyIDQ2LDQ0IEw0NiwxOSBMNDYsMTMgQzQ2LDEyLjQ0OCA0NS41NTMsMTIgNDUsMTIgTDQ1LDEyIFogTTIsMTcgTDUuOTc2LDE3IEw1Ljk3NiwxNSBMMiwxNSBMMiwxNyBaIgogICAgICAgICAgICBpZD0iRmlsbC0xIiBmaWxsPSIjRkZGRkZGIj48L3BhdGg+CiAgICA8L2c+Cjwvc3ZnPg==;strokeWidth=1;imageBackground=none;fontSize=15;verticalAlign=bottom;spacingBottom=-26;" vertex="1" parent="1">
          <mxGeometry x="1130" y="989.25" width="78" height="78" as="geometry" />
        </mxCell>
      </root>
    </mxGraphModel>
  </diagram>
</mxfile>
